<svg width="24" height="24" viewBox="0 0 24 24" fill="none" xmlns="http://www.w3.org/2000/svg">
<path fill-rule="evenodd" clip-rule="evenodd" d="M18.8076 13.5968C18.6647 13.4875 18.5915 13.3099 18.6159 13.1317L18.6554 12.8434C18.6917 12.579 18.7104 12.3016 18.7104 12C18.7104 11.7068 18.6914 11.4322 18.6498 11.1897L18.5985 10.8901C18.567 10.706 18.6406 10.5198 18.7895 10.407L20.4855 9.12299C20.6885 8.96931 20.7436 8.68766 20.6135 8.46883L19.4427 6.49958C19.3177 6.28929 19.0589 6.20036 18.831 6.28939L16.7973 7.08399C16.6372 7.14653 16.4563 7.12249 16.3181 7.02034L16.0961 6.85621C15.6175 6.5024 15.1253 6.21546 14.5877 6.00277L14.3187 5.8963C14.1522 5.83044 14.0337 5.68061 14.0078 5.50347L13.7054 3.42791C13.6696 3.18221 13.4589 3 13.2106 3H10.8001C10.5518 3 10.3411 3.18221 10.3053 3.42791L10.0029 5.50347C9.97706 5.68061 9.85851 5.83044 9.69206 5.8963L9.42297 6.00277C8.88779 6.21453 8.38428 6.51128 7.91217 6.85804L7.69045 7.02089C7.5524 7.12229 7.37205 7.14596 7.21251 7.08363L5.1815 6.29009C4.95322 6.2009 4.69394 6.29032 4.56918 6.50127L3.40564 8.46855C3.27626 8.6873 3.33157 8.96832 3.5342 9.12172L5.23191 10.407C5.3808 10.5198 5.45446 10.706 5.42292 10.8901L5.37159 11.1897C5.32255 11.4759 5.28957 11.7573 5.28957 12C5.28957 12.2837 5.30873 12.5684 5.35017 12.8103L5.4015 13.1099C5.43304 13.2939 5.35938 13.4802 5.21049 13.593L3.51445 14.877C3.31147 15.0307 3.25637 15.3123 3.38648 15.5312L4.55727 17.5004C4.68229 17.7107 4.94113 17.7996 5.16901 17.7106L7.20274 16.916C7.36279 16.8535 7.54375 16.8775 7.68193 16.9797L7.90395 17.1438C8.38255 17.4976 8.87474 17.7845 9.41226 17.9972L9.68135 18.1037C9.8478 18.1696 9.96635 18.3194 9.99216 18.4965L10.2946 20.5721C10.3304 20.8178 10.5411 21 10.7894 21H13.1999C13.4482 21 13.6589 20.8178 13.6947 20.5721L13.9971 18.4965C14.0229 18.3194 14.1415 18.1696 14.3079 18.1037L14.577 17.9972C15.1196 17.7826 15.6197 17.495 16.0776 17.1496L16.3005 16.9814C16.4391 16.8769 16.6219 16.8517 16.7836 16.9149L18.8203 17.7106C19.0482 17.7996 19.307 17.7107 19.432 17.5004L20.605 15.5275C20.7347 15.3094 20.6805 15.0288 20.4789 14.8747L18.8076 13.5968ZM21.9272 15.2604L19.8711 18.7188C19.7426 18.9479 19.4748 19.0312 19.2392 18.9479L16.9399 18.0495C16.7783 17.9864 16.5961 18.0126 16.4539 18.1121C16.0673 18.3826 15.6533 18.6195 15.2118 18.8152C15.0482 18.8877 14.929 19.0363 14.9032 19.2134L14.5594 21.5729C14.5273 21.8229 14.3131 22 14.0561 22H9.94388C9.68687 22 9.4834 21.8229 9.42986 21.5729L9.08606 19.2134C9.06025 19.0363 8.9411 18.8878 8.77755 18.815C8.33616 18.6185 7.92559 18.3805 7.53391 18.1087C7.39273 18.0108 7.21237 17.9859 7.05232 18.0484L4.75005 18.9479C4.51446 19.0208 4.24673 18.9479 4.11823 18.7188L2.06211 15.2604C1.94431 15.0521 1.99786 14.7708 2.19062 14.625L4.12218 13.1626C4.27107 13.0499 4.34294 12.8638 4.32336 12.6781C4.29968 12.4535 4.28957 12.2218 4.28957 12C4.28957 11.778 4.30982 11.5461 4.33988 11.3213C4.36463 11.1362 4.29249 10.9501 4.1436 10.8374L2.21204 9.375C1.99786 9.22917 1.95502 8.95833 2.08353 8.73958L4.12894 5.28125C4.25744 5.05208 4.52517 4.96875 4.76076 5.05208L7.06397 5.95197C7.22351 6.01431 7.40327 5.98979 7.54422 5.89246C7.93139 5.62513 8.34611 5.38299 8.78837 5.18527C8.9518 5.11221 9.07096 4.9637 9.09677 4.78655L9.44056 2.42708C9.4834 2.17708 9.68687 2 9.94388 2H14.0561C14.3131 2 14.5273 2.17708 14.5701 2.42708L14.9139 4.78655C14.9398 4.9637 15.0589 5.11223 15.2224 5.18503C15.6638 5.38151 16.0744 5.6195 16.4661 5.89126C16.6073 5.98922 16.7876 6.01414 16.9477 5.9516L19.2499 5.05208C19.4855 4.97917 19.7533 5.05208 19.8818 5.28125L21.9379 8.73958C22.0557 8.94792 22.0021 9.22917 21.8094 9.375L19.8778 10.8374C19.7289 10.9501 19.6571 11.1362 19.6769 11.3219C19.7004 11.5435 19.7104 11.7717 19.7104 12C19.7104 12.2389 19.7001 12.4678 19.6794 12.6901C19.6627 12.8692 19.7345 13.0467 19.8774 13.1559L21.7987 14.625C22.0021 14.7708 22.0557 15.0312 21.9272 15.2604Z" fill="#FAFAFA"/>
<path fill-rule="evenodd" clip-rule="evenodd" d="M14 12C14 12.2761 13.7761 12.5 13.5 12.5H10.5C10.2239 12.5 10 12.2761 10 12C10 11.7239 10.2239 11.5 10.5 11.5H13.5C13.7761 11.5 14 11.7239 14 12Z" fill="#FAFAFA"/>
</svg>
