<svg width="206" height="67" viewBox="0 0 206 67" fill="none" xmlns="http://www.w3.org/2000/svg">
<path d="M25.2077 49.6024C22.5382 49.6024 21.0774 50.9522 19.6514 54.0988L14.3646 66.0717C14.1212 66.6239 13.7299 66.8956 13.1821 66.8956H1.5478C1.1826 66.8956 1 66.7729 1 66.5275C1 66.3785 1 66.2558 1.08695 66.0717L6.1563 54.651C8.3736 49.6024 12.8082 46.0176 18.8514 46.0176H40.9026C41.2939 46.0176 41.4765 46.1403 41.4765 46.412C41.4765 46.5347 41.4505 46.6574 41.3896 46.8064L40.5114 48.7698C40.2679 49.322 39.8766 49.5937 39.3288 49.5937H25.2077V49.6024ZM21.1991 57.3156C20.8339 57.3156 20.6513 57.1929 20.6513 56.9474C20.6513 56.8247 20.6774 56.6757 20.7731 56.518L21.6252 54.5283C21.8687 54.0112 22.26 53.7307 22.8078 53.7307H37.355C37.7463 53.7307 37.9636 53.8184 37.9636 54.0375C37.9636 54.0988 37.9289 54.1865 37.9289 54.2829L36.8072 56.7634C36.6594 57.1315 36.2941 57.3156 35.7463 57.3156H21.1991Z" fill="#FBFBFB"/>
<path d="M35.5029 66.9044C35.1377 66.9044 34.9551 66.7817 34.9551 66.5363C34.9551 66.3873 34.9899 66.2646 35.042 66.0805L43.5721 46.824C43.8156 46.3068 44.2069 46.0264 44.7286 46.0264H55.1803C55.5716 46.0264 55.7542 46.1491 55.7542 46.4208C55.7542 46.5435 55.7194 46.6662 55.6325 46.8152L47.1285 66.0718C46.885 66.6239 46.4937 66.8957 45.972 66.8957H35.4942L35.5029 66.9044Z" fill="#FBFBFB"/>
<path d="M58.8236 66.9043C58.554 66.9043 58.3714 66.8167 58.3714 66.694C58.3714 66.6326 58.4062 66.5713 58.4323 66.5099L65.8755 49.6111H57.0063C56.7019 49.6111 56.5802 49.5498 56.5802 49.4008V49.2781L57.8236 46.4295C57.9714 46.1577 58.2149 46.035 58.5801 46.035H88.4049C88.6745 46.035 88.831 46.0964 88.831 46.2454C88.831 46.3067 88.7962 46.3681 88.7962 46.4295L87.5528 49.2781C87.4311 49.5235 87.1876 49.6111 86.8224 49.6111H77.8923L70.4492 66.5099C70.3274 66.7816 70.084 66.9043 69.7188 66.9043H58.8149H58.8236Z" fill="#FBFBFB"/>
<path d="M114.317 66.9044C113.926 66.9044 113.743 66.7817 113.743 66.5363C113.743 66.3873 113.769 66.2646 113.865 66.0805L117.725 57.3243H108.613L104.726 66.0805C104.483 66.6327 104.117 66.9044 103.604 66.9044H93.1613C92.7961 66.9044 92.5874 66.7817 92.5874 66.5363C92.5874 66.3873 92.6222 66.2646 92.7091 66.0805L101.239 46.824C101.483 46.3068 101.848 46.0263 102.396 46.0263H112.847C113.178 46.0263 113.395 46.1491 113.395 46.4208C113.395 46.5435 113.369 46.6662 113.273 46.8152L110.204 53.7307H119.343L122.377 46.8152C122.621 46.2981 123.012 46.0176 123.56 46.0176H133.977C134.342 46.0176 134.525 46.1403 134.525 46.412C134.525 46.5347 134.499 46.6574 134.438 46.8064L125.908 66.063C125.664 66.6152 125.299 66.8869 124.786 66.8869H114.334L114.317 66.9044Z" fill="#FBFBFB"/>
<path d="M138.89 66.9044C133.725 66.9044 131.507 65.1251 131.507 62.0661C131.507 60.7163 131.96 59.0948 132.751 57.2892L137.394 46.8151C137.638 46.298 138.003 46.0175 138.551 46.0175H149.881C150.272 46.0175 150.454 46.1402 150.454 46.412C150.454 46.5347 150.428 46.6574 150.333 46.8064L145.716 57.2805C145.142 58.6303 144.803 59.7609 144.803 60.7076C144.803 62.3641 145.802 63.2757 148.02 63.2757H153.246C156.706 63.2757 159.289 61.0143 160.958 57.2717L165.576 46.7976C165.819 46.2805 166.21 46 166.732 46H170.41C170.775 46 170.958 46.1227 170.958 46.3944C170.958 46.5171 170.932 46.6398 170.871 46.7888L166.228 57.2629C163.863 62.6183 158.698 66.8781 151.646 66.8781H138.89V66.9044Z" fill="#FBFBFB"/>
<path d="M165.132 66.9044C164.767 66.9044 164.584 66.7817 164.584 66.5363C164.584 66.3873 164.619 66.2646 164.671 66.0805L173.201 46.824C173.445 46.3068 173.81 46.0264 174.358 46.0264H200.722C203.609 46.0264 205 47.2797 205 49.3044C205 53.1347 201.783 54.5722 200.296 55.212C201.052 55.5188 201.783 56.7459 201.783 58.455C201.783 62.1626 197.592 66.9044 190.975 66.9044H165.132ZM182.957 57.3244C182.592 57.3244 182.444 57.2016 182.444 56.9562C182.444 56.8335 182.479 56.6845 182.54 56.5267L183.418 54.5371C183.662 54.02 184.027 53.7395 184.575 53.7395H189.496C191.531 53.7395 193.322 52.0829 193.322 50.8646C193.322 50.1284 192.774 49.6112 191.322 49.6112H183.697L177.653 63.2933H184.757C189.07 63.2933 189.74 60.0765 189.74 59.0335C189.74 57.9291 188.983 57.3156 187.401 57.3156H182.966L182.957 57.3244Z" fill="#FBFBFB"/>
<path d="M13.2812 13.8594H0.484375V12.6875H13.2812V13.8594ZM1.9375 15.0781H11.6562V19.3281H10.1406V16.2656H1.9375V15.0781ZM2.15625 5.6875H11.7188V6.85938H3.65625V8H11.3594V9.125H3.65625V10.3594H11.8125V11.5H2.15625V5.6875ZM26 12.6094H24.5312V10.9375H21.4688V12.0938H15.0156V5.96875H16.5V7.85938H20V5.96875H21.4688V7.25H24.5312V5.32812H26V12.6094ZM20 10.9062V9H16.5V10.9062H20ZM16.8438 13.2344H26V16.6719H18.3594V17.9688H26.5V19.1562H16.875V15.5625H24.5312V14.3906H16.8438V13.2344ZM24.5312 9.79688V8.39062H21.4688V9.79688H24.5312ZM39.1719 9.84375H41.2031V11.0781H39.1719V15.8125H37.6875V5.34375H39.1719V9.84375ZM28.1875 6.96875H31.625V5.32812H33.1094V6.96875H36.5312V8.17188H28.1875V6.96875ZM28.9531 11.4844C28.9531 10.9583 29.0938 10.4948 29.375 10.0938C29.6615 9.69271 30.0625 9.38542 30.5781 9.17188C31.0938 8.95312 31.6875 8.84375 32.3594 8.84375C33.026 8.84375 33.6146 8.95312 34.125 9.17188C34.6406 9.38542 35.0391 9.69271 35.3203 10.0938C35.6068 10.4948 35.75 10.9583 35.75 11.4844C35.75 12.0052 35.6068 12.4635 35.3203 12.8594C35.0391 13.2552 34.6406 13.5625 34.125 13.7812C33.6146 14 33.026 14.1094 32.3594 14.1094C31.6875 14.1094 31.0938 14 30.5781 13.7812C30.0625 13.5625 29.6615 13.2552 29.375 12.8594C29.0938 12.4635 28.9531 12.0052 28.9531 11.4844ZM30.2969 14.9844H31.7812V17.8281H39.7656V19.0312H30.2969V14.9844ZM30.3906 11.4844C30.3854 11.7812 30.4635 12.0417 30.625 12.2656C30.7865 12.4844 31.013 12.6536 31.3047 12.7734C31.6016 12.8932 31.9453 12.9531 32.3359 12.9531C32.9401 12.9531 33.4271 12.8229 33.7969 12.5625C34.1667 12.3021 34.3542 11.9427 34.3594 11.4844C34.3542 11.026 34.1693 10.6641 33.8047 10.3984C33.4401 10.1276 32.9583 9.98958 32.3594 9.98438C31.9635 9.98438 31.6146 10.0469 31.3125 10.1719C31.0156 10.2917 30.7865 10.4661 30.625 10.6953C30.4635 10.9193 30.3854 11.1823 30.3906 11.4844ZM58.7031 13.5469H53.1562V16.2656H51.6562V13.5469H45.8906V12.3438H58.7031V13.5469ZM47.2969 8.5C47.2969 7.92188 47.5 7.41927 47.9062 6.99219C48.3177 6.5651 48.8984 6.23698 49.6484 6.00781C50.4036 5.77344 51.2812 5.65625 52.2812 5.65625C53.2812 5.65625 54.1562 5.77344 54.9062 6.00781C55.6562 6.23698 56.2344 6.5651 56.6406 6.99219C57.0469 7.41927 57.25 7.92188 57.25 8.5C57.25 9.07292 57.0443 9.57292 56.6328 10C56.2266 10.4271 55.6484 10.7552 54.8984 10.9844C54.1484 11.2135 53.276 11.3281 52.2812 11.3281C51.2865 11.3281 50.4115 11.2135 49.6562 10.9844C48.901 10.7552 48.3177 10.4271 47.9062 10C47.5 9.57292 47.2969 9.07292 47.2969 8.5ZM47.5 14.9219H48.9844V17.8125H57.2812V19.0312H47.5V14.9219ZM48.8906 8.5C48.8854 8.83333 49.0208 9.1224 49.2969 9.36719C49.5781 9.61198 49.974 9.79948 50.4844 9.92969C51 10.0599 51.599 10.125 52.2812 10.125C52.9635 10.125 53.5599 10.0599 54.0703 9.92969C54.5859 9.79948 54.9844 9.61198 55.2656 9.36719C55.5469 9.1224 55.6875 8.83333 55.6875 8.5C55.6875 8.15625 55.5469 7.86198 55.2656 7.61719C54.9844 7.36719 54.5859 7.17708 54.0703 7.04688C53.5599 6.91146 52.9635 6.84375 52.2812 6.84375C51.599 6.84896 51 6.91667 50.4844 7.04688C49.974 7.17708 49.5781 7.36719 49.2969 7.61719C49.0208 7.86719 48.8854 8.16146 48.8906 8.5ZM72.5156 13.3281H59.7344V12.1406H65.4062V10.6562H61.3281V5.96875H70.9375V7.14062H62.7969V9.46875H71.0312V10.6562H66.8438V12.1406H72.5156V13.3281ZM61.25 16.7812C61.25 16.2448 61.4427 15.7865 61.8281 15.4062C62.2135 15.026 62.7708 14.737 63.5 14.5391C64.2292 14.3359 65.099 14.2344 66.1094 14.2344C67.1146 14.2344 67.9766 14.3359 68.6953 14.5391C69.4193 14.737 69.974 15.026 70.3594 15.4062C70.7448 15.7865 70.9375 16.2448 70.9375 16.7812C70.9375 17.3177 70.7448 17.776 70.3594 18.1562C69.974 18.5365 69.4193 18.8255 68.6953 19.0234C67.9766 19.2266 67.1146 19.3281 66.1094 19.3281C65.099 19.3281 64.2292 19.2266 63.5 19.0234C62.7708 18.8255 62.2135 18.5365 61.8281 18.1562C61.4427 17.776 61.25 17.3177 61.25 16.7812ZM62.75 16.7812C62.7448 17.2292 63.0339 17.5729 63.6172 17.8125C64.2057 18.0521 65.0365 18.1667 66.1094 18.1562C67.1667 18.1667 67.987 18.0521 68.5703 17.8125C69.1589 17.5729 69.4531 17.2292 69.4531 16.7812C69.4531 16.3385 69.1589 15.9974 68.5703 15.7578C67.987 15.513 67.1667 15.3906 66.1094 15.3906C65.0417 15.3906 64.2135 15.513 63.625 15.7578C63.0365 15.9974 62.7448 16.3385 62.75 16.7812ZM85.2344 13.6562H83.75V10.1094H81.1406V8.89062H83.75V5.32812H85.2344V13.6562ZM73.5625 12.3906C74.2708 12.1406 74.8906 11.7812 75.4219 11.3125C75.9531 10.8385 76.3594 10.2995 76.6406 9.69531C76.9271 9.08594 77.0677 8.45833 77.0625 7.8125V7.5H74.0312V6.29688H81.5781V7.5H78.5781V7.79688C78.5729 8.39062 78.7057 8.96615 78.9766 9.52344C79.2474 10.0807 79.638 10.5781 80.1484 11.0156C80.6589 11.4479 81.2604 11.7812 81.9531 12.0156L81.1875 13.1875C80.4167 12.9219 79.7448 12.526 79.1719 12C78.6042 11.4688 78.1641 10.849 77.8516 10.1406C77.5443 10.9323 77.0885 11.6276 76.4844 12.2266C75.8802 12.8255 75.1667 13.276 74.3438 13.5781L73.5625 12.3906ZM75.8125 16.6875C75.8125 16.1354 76 15.6641 76.375 15.2734C76.7552 14.8776 77.2995 14.5755 78.0078 14.3672C78.7214 14.1536 79.5677 14.0469 80.5469 14.0469C81.5208 14.0469 82.362 14.1536 83.0703 14.3672C83.7786 14.5755 84.3229 14.8776 84.7031 15.2734C85.0885 15.6641 85.2812 16.1354 85.2812 16.6875C85.2812 17.2396 85.0885 17.7109 84.7031 18.1016C84.3229 18.4974 83.7786 18.7995 83.0703 19.0078C82.362 19.2214 81.5208 19.3281 80.5469 19.3281C79.5677 19.3281 78.7214 19.2214 78.0078 19.0078C77.2995 18.7995 76.7552 18.4974 76.375 18.1016C76 17.7109 75.8125 17.2396 75.8125 16.6875ZM77.2812 16.6875C77.276 17.1615 77.5599 17.5286 78.1328 17.7891C78.7109 18.0443 79.5156 18.1667 80.5469 18.1562C81.5677 18.1667 82.3646 18.0443 82.9375 17.7891C83.5156 17.5286 83.8073 17.1615 83.8125 16.6875C83.8073 16.2188 83.5208 15.8542 82.9531 15.5938C82.3906 15.3333 81.6042 15.2031 80.5938 15.2031C79.5417 15.2031 78.724 15.3307 78.1406 15.5859C77.5625 15.8411 77.276 16.2083 77.2812 16.6875ZM100.203 17.5938H87.3906V16.3594H93.0312V13.4844H88.8594V6.28125H90.3438V8.6875H97.2188V6.28125H98.6875V13.4844H94.5V16.3594H100.203V17.5938ZM97.2188 12.2812V9.89062H90.3438V12.2812H97.2188ZM112.266 6.75C112.26 8.22396 112.068 9.57812 111.688 10.8125C111.312 12.0469 110.659 13.1979 109.727 14.2656C108.794 15.3281 107.531 16.2656 105.938 17.0781L105.109 15.9531C106.312 15.3385 107.307 14.6562 108.094 13.9062C108.885 13.1562 109.497 12.3255 109.93 11.4141L105.391 11.8438L105.156 10.5625L110.383 10.2344C110.596 9.52604 110.732 8.76562 110.789 7.95312H105.875V6.75H112.266ZM112.234 10.875H115.312V5.32812H116.781V19.3281H115.312V12.0938H112.234V10.875ZM131.75 14.5469H128.609V19.4062H127.125V14.5469H123.609V19.4062H122.125V14.5469H118.938V13.3281H131.75V14.5469ZM120.547 6.0625H130.141V11.5781H120.547V6.0625ZM128.656 10.3906V7.25H122V10.3906H128.656ZM144.406 19.3281H142.922V5.32812H144.406V19.3281ZM133.641 6.6875H135.109V14.4844C137.328 14.474 139.474 14.2604 141.547 13.8438L141.75 15.0938C140.562 15.3385 139.401 15.513 138.266 15.6172C137.13 15.7214 135.979 15.7708 134.812 15.7656H133.641V6.6875ZM154.391 7.78125H148.938V10.4844H153.859V11.6719H148.938V14.8125C150.245 14.8021 151.372 14.7682 152.32 14.7109C153.273 14.6484 154.245 14.5365 155.234 14.375L155.391 15.5781C154.349 15.7448 153.32 15.8594 152.305 15.9219C151.289 15.9792 150.057 16.0104 148.609 16.0156H147.469V6.5625H154.391V7.78125ZM156.75 5.32812H158.25V19.3281H156.75V5.32812ZM175.906 6.875H173.875V9.29688H175.844V10.4375H165.578V9.29688H167.562V6.875H165.516V5.75H175.906V6.875ZM164.344 11.4688H177.109V12.6406H164.344V11.4688ZM165.875 13.7344H175.5V16.9375H167.344V18.0625H175.891V19.1875H165.891V15.8906H174.031V14.8438H165.875V13.7344ZM172.391 9.29688V6.875H169.031V9.29688H172.391ZM190.109 14.8438H188.703V10.125H186.984V13.6406H185.594V5.59375H186.984V8.90625H188.703V5.34375H190.109V14.8438ZM178.766 6.39062H184.078V10.4062H180.234V12.2656C181.151 12.2604 181.961 12.2292 182.664 12.1719C183.372 12.1146 184.094 12.0104 184.828 11.8594L184.984 13.0312C184.172 13.1979 183.38 13.3099 182.609 13.3672C181.839 13.4193 180.875 13.4479 179.719 13.4531H178.797V9.3125H182.656V7.59375H178.766V6.39062ZM179.922 18.1094C180.792 17.9844 181.583 17.7474 182.297 17.3984C183.016 17.0443 183.583 16.6172 184 16.1172C184.417 15.612 184.625 15.0781 184.625 14.5156V14.1875H186.109V14.5156C186.109 15.0781 186.318 15.612 186.734 16.1172C187.151 16.6172 187.719 17.0443 188.438 17.3984C189.156 17.7474 189.953 17.9844 190.828 18.1094L190.234 19.2656C189.146 19.0938 188.169 18.7552 187.305 18.25C186.445 17.75 185.802 17.138 185.375 16.4141C184.943 17.138 184.294 17.75 183.43 18.25C182.57 18.7552 181.599 19.0938 180.516 19.2656L179.922 18.1094ZM204.766 13.4844H192V12.2969H197.625V10.8438H193.234V9.64062H195.219V6.96875H193.172V5.76562H203.562V6.96875H201.531V9.64062H203.5V10.8438H199.109V12.2969H204.766V13.4844ZM193.531 14.7031H203.203V19.1562H193.531V14.7031ZM201.766 17.9531V15.8594H195V17.9531H201.766ZM200.047 9.64062V6.96875H196.688V9.64062H200.047Z" fill="#E7E7E7"/>
</svg>
